<svg width="16" height="17" viewBox="0 0 16 17" fill="none" xmlns="http://www.w3.org/2000/svg">
<path fill-rule="evenodd" clip-rule="evenodd" d="M12.1919 10.6626C12.4522 10.923 12.8743 10.923 13.1347 10.6626C13.395 10.4023 13.395 9.98019 13.1347 9.71984L8.47435 5.05949C8.47229 5.05738 8.47021 5.05527 8.46811 5.05317C8.33741 4.92248 8.16596 4.85739 7.99466 4.85791C7.8247 4.85841 7.65489 4.9235 7.52522 5.05317C7.52313 5.05526 7.52106 5.05735 7.51901 5.05946L2.85863 9.71984C2.59828 9.98019 2.59828 10.4023 2.85863 10.6626C3.11898 10.923 3.54109 10.923 3.80144 10.6626L7.99666 6.46743L12.1919 10.6626Z" fill="#FCFCFC"/>
</svg>
